:SAMPLES-PER-SECOND 30
:FULLY-SPECIFIED
:DEGREES
373
root  13.5515 32.7358 -4.19737 -49.041 -72.463 41.5489
RightUpLeg  -20.9644 -10.717 -38.9703
RightLeg  58.4259 -2.32074 -4.56031
RightFoot  -13.9942 0.58504 28.8525
RightToes  -5.28226e-011 1.30204e-014 -6.03759e-014
Spine  33.9173 -0.067911 19.5427
Spine1  -2.30972 9.54889 -25.6869
HEad  -16.2789 -29.8696 -4.94736
LeftShoulder1  0.14514 2.81973 -14.8345
LeftArm  -10.711 -8.72879 -48.6771
LeftForeArm  -36.0666 -29.8267 -8.03732
LeftHand  0.0637311 5.58647 32.9982
RightShoulder  2.08165 4.03539 21.3014
RightArm  -19.2075 -45.5518 19.8009
RightForeArm  -39.7981 34.5842 9.48615
RightHand  -1.58482 0.99238 -28.4641
LeftUpLeg  -29.9329 -2.63479 18.0673
LeftLeg  52.357 4.04414 6.03413
LeftFoot  16.6264 4.90267 -20.3219
LeftToes  -2.75829e-010 5.07641e-011 -5.51782e-011
374
root  13.8443 31.4387 -3.19023 -66.1592 -77.3063 57.4806
RightUpLeg  -26.4854 -6.30776 -39.2445
RightLeg  62.3182 -0.583656 -1.77107
RightFoot  -14.4424 0.706938 29.0649
RightToes  -5.28226e-011 1.30204e-014 -6.03759e-014
Spine  36.8154 0.947303 18.3314
Spine1  -2.3058 10.8771 -24.8942
HEad  -16.7656 -25.3302 -6.66373
LeftShoulder1  0.259418 2.40717 -16.0413
LeftArm  -23.6089 0.410499 -51.6379
LeftForeArm  -28.5764 -42.7842 -12.2555
LeftHand  0.0698803 5.60204 32.8738
RightShoulder  1.60184 3.19555 17.3186
RightArm  -13.3777 -33.4881 16.0153
RightForeArm  -42.7458 20.1016 6.25969
RightHand  -1.66911 0.845269 -30.5994
LeftUpLeg  -26.447 1.43557 20.8423
LeftLeg  57.5889 1.91597 3.70652
LeftFoot  2.59462 4.06215 -32.8602
LeftToes  -2.75829e-010 5.07641e-011 -5.51782e-011
375
root  13.8429 30.1819 -2.3607 -79.5504 -81.84 70.3268
RightUpLeg  -30.502 -2.41336 -37.4196
RightLeg  66.01 0.06331 -0.518576
RightFoot  -15.9656 1.18783 31.366
RightToes  -5.28226e-011 1.30204e-014 -6.03759e-014
Spine  36.7571 0.66393 11.8351
Spine1  -2.7646 7.11421 -16.7764
HEad  -19.2255 -11.8031 -8.83619
LeftShoulder1  1.00293 -0.179134 -20.6147
LeftArm  -33.888 14.8023 -46.199
LeftForeArm  -28.3242 -55.8127 -18.4514
LeftHand  0.41227 6.72275 34.192
RightShoulder  1.18893 1.94298 15.1128
RightArm  -24.8215 -18.8825 19.2594
RightForeArm  -34.7191 21.8317 6.63965
RightHand  -1.76042 1.03899 -31.2707
LeftUpLeg  -24.0387 4.45084 27.0554
LeftLeg  61.628 -2.66223 -4.76191
LeftFoot  -11.0613 0.262207 -40.8262
LeftToes  -2.75829e-010 5.07641e-011 -5.51782e-011
376
root  13.7793 29.2418 -1.71553 -71.4746 -84.8447 60.5567
RightUpLeg  -30.2214 -0.530891 -35.6181
RightLeg  68.6702 -0.105758 -1.06151
RightFoot  -16.6303 1.45849 33.1886
RightToes  -5.28226e-011 1.30204e-014 -6.03759e-014
Spine  36.5112 -0.111759 1.92396
Spine1  -1.84567 0.946722 -4.03577
HEad  -22.6993 3.37466 -10.3441
LeftShoulder1  1.77983 -2.47352 -23.6505
LeftArm  -35.0591 25.144 -39.5729
LeftForeArm  -32.676 -55.2366 -18.8169
LeftHand  0.564979 7.21215 34.3674
RightShoulder  0.989856 1.1382 14.5444
RightArm  -30.7423 -9.60849 27.12
RightForeArm  -29.1357 36.7407 9.92773
RightHand  -1.74691 1.0361 -31.0413
LeftUpLeg  -22.6947 4.95361 32.2446
LeftLeg  64.8652 -6.30171 -13.6927
LeftFoot  -20.1174 -3.02129 -39.7242
LeftToes  -2.75829e-010 5.07641e-011 -5.51782e-011
377
root  13.7552 28.901 -1.16053 -34.3116 -85.0097 20.5808
RightUpLeg  -25.7369 0.601128 -34.0018
RightLeg  68.5556 -0.737279 -2.80745
RightFoot  -16.0913 1.31915 33.5063
RightToes  -5.28226e-011 1.30204e-014 -6.03759e-014
Spine  37.1251 0.784872 -8.66402
Spine1  1.28486 -4.47041 10.0298
HEad  -25.5166 13.8011 -10.4094
LeftShoulder1  2.02732 -4.0636 -20.4655
LeftArm  -26.7118 29.311 -39.4439
LeftForeArm  -37.9115 -43.3632 -12.5982
LeftHand  0.403889 6.70792 33.9464
RightShoulder  0.931763 0.78303 14.9872
RightArm  -31.535 -9.25502 34.2459
RightForeArm  -23.7015 51.3522 15.7845
RightHand  -1.44461 0.0379045 -30.4137
LeftUpLeg  -21.8327 3.17235 34.6011
LeftLeg  66.4382 -7.5094 -17.5981
LeftFoot  -25.0983 -4.31771 -35.8275
LeftToes  -2.75829e-010 5.07641e-011 -5.51782e-011
378
root  13.6017 29.1336 -0.559855 -4.40192 -82.4219 -11.264
RightUpLeg  -19.8916 2.18542 -31.398
RightLeg  65.5962 -2.03135 -5.49689
RightFoot  -15.6073 1.23051 34.9073
RightToes  -5.28226e-011 1.30204e-014 -6.03759e-014
Spine  35.9046 3.07758 -15.9078
Spine1  5.36106 -7.48395 21.2751
HEad  -26.2527 17.206 -8.21468
LeftShoulder1  1.99498 -6.00088 -14.0898
LeftArm  -16.5421 27.9263 -45.7244
LeftForeArm  -40.3305 -30.7587 -8.42613
LeftHand  0.510011 6.95869 35.7094
RightShoulder  1.09707 1.08397 17.3435
RightArm  -32.5466 -18.3811 36.5866
RightForeArm  -18.9426 60.8418 22.2361
RightHand  -1.23615 -0.684165 -30.0312
LeftUpLeg  -21.5649 0.0327087 35.6731
LeftLeg  66.3777 -7.26173 -17.0083
LeftFoot  -28.2723 -5.13469 -34.59
LeftToes  -2.75829e-010 5.07641e-011 -5.51782e-011
379
root  13.2754 29.8049 0.170241 12.0424 -80.6047 -28.295
RightUpLeg  -16.0114 4.06621 -27.9663
RightLeg  61.7138 -4.25855 -9.03889
RightFoot  -11.9682 0.084304 37.8839
RightToes  -5.28226e-011 1.30204e-014 -6.03759e-014
Spine  32.6616 4.34726 -18.5994
Spine1  7.9143 -8.29756 26.4671
HEad  -24.4111 17.4501 -4.42832
LeftShoulder1  1.99343 -7.94625 -10.0702
LeftArm  -14.3031 24.8016 -51.0496
LeftForeArm  -40.5181 -21.9611 -6.79579
LeftHand  0.686712 7.45551 36.6475
RightShoulder  1.27712 1.32892 20.1309
RightArm  -29.7308 -29.8019 37.0612
RightForeArm  -19.2567 61.9953 23.75
RightHand  -1.19554 -0.863238 -30.1811
LeftUpLeg  -20.6331 -2.89129 36.6539
LeftLeg  65.239 -6.72829 -14.9401
LeftFoot  -29.6518 -5.64165 -35.0688
LeftToes  -2.75829e-010 5.07641e-011 -5.51782e-011
